<?xml version="1.0" standalone="no"?>
<!DOCTYPE svg PUBLIC "-//W3C//DTD SVG 20010904//EN"
 "http://www.w3.org/TR/2001/REC-SVG-20010904/DTD/svg10.dtd">
<svg version="1.0" xmlns="http://www.w3.org/2000/svg"
 width="237.000000pt" height="237.000000pt" viewBox="0 0 237.000000 237.000000"
 preserveAspectRatio="xMidYMid meet">
<metadata>
Created by potrace 1.14, written by Peter Selinger 2001-2017
</metadata>
<g transform="translate(0.000000,237.000000) scale(0.100000,-0.100000)"
fill="#000000" stroke="none">
<path d="M630 1983 c-67 -10 -151 -37 -210 -66 -84 -41 -191 -145 -225 -218
-56 -120 -20 -188 175 -334 208 -156 232 -204 147 -293 -42 -44 -78 -62 -130
-66 -80 -6 -127 28 -127 90 0 17 8 38 18 47 27 24 113 65 155 72 20 4 37 10
37 14 0 18 -61 63 -106 79 -127 46 -277 -8 -335 -120 -46 -89 -1 -177 115
-229 69 -30 95 -34 231 -34 131 0 169 5 243 33 131 50 216 147 228 263 10 89
-44 160 -198 262 -135 89 -169 131 -154 191 17 67 208 207 303 222 39 6 43 4
52 -19 28 -74 -114 -264 -210 -284 -38 -7 -36 -16 6 -49 29 -22 47 -27 102
-29 112 -4 208 33 290 114 114 113 66 285 -94 337 -55 17 -243 27 -313 17z"/>
<path d="M1407 1965 c-72 -18 -90 -40 -210 -255 -156 -282 -282 -604 -270
-693 8 -56 81 -100 157 -96 83 5 221 96 389 257 61 59 108 103 105 97 -8 -15
-47 -101 -128 -288 l-74 -168 -122 -58 c-154 -74 -219 -132 -229 -203 -9 -59
12 -99 74 -143 39 -28 50 -30 134 -32 84 -2 98 1 154 28 68 33 135 100 170
170 12 24 51 105 86 181 l65 136 76 52 c129 86 272 207 427 360 82 80 149 150
150 155 0 6 3 22 5 36 2 15 0 39 -6 54 -10 26 -12 25 -193 -158 -155 -158
-374 -354 -383 -344 -2 1 11 32 28 67 27 58 194 410 329 698 27 57 49 109 49
117 0 29 -112 50 -181 32 -20 -5 -47 -19 -61 -31 -29 -24 -110 -153 -186 -296
-43 -80 -73 -117 -214 -263 -169 -177 -269 -267 -294 -267 -8 0 -14 10 -14 26
0 25 35 105 247 567 112 246 113 249 50 263 -54 12 -81 12 -130 -1z m-129
-1361 c-42 -86 -74 -119 -104 -107 -48 18 -5 107 79 162 33 22 63 39 65 37 1
-2 -16 -43 -40 -92z"/>
</g>
</svg>
